<mxfile host="app.diagrams.net" modified="2020-03-23T09:51:16.048Z" agent="Mozilla/5.0 (Windows NT 10.0; Win64; x64) AppleWebKit/537.36 (KHTML, like Gecko) Chrome/68.0.3440.106 Safari/537.36" etag="7D0b9UTWeE6tfCCvaO_9" version="12.8.8" type="github">
  <diagram id="C5RBs43oDa-KdzZeNtuy" name="Page-1">
    <mxGraphModel dx="1662" dy="768" grid="1" gridSize="10" guides="1" tooltips="1" connect="1" arrows="1" fold="1" page="1" pageScale="1" pageWidth="827" pageHeight="1169" math="0" shadow="0">
      <root>
        <mxCell id="WIyWlLk6GJQsqaUBKTNV-0" />
        <mxCell id="WIyWlLk6GJQsqaUBKTNV-1" parent="WIyWlLk6GJQsqaUBKTNV-0" />
        <mxCell id="k9V-9qbHWD5xuGSFb-m8-11" value="" style="rounded=1;whiteSpace=wrap;html=1;" vertex="1" parent="WIyWlLk6GJQsqaUBKTNV-1">
          <mxGeometry x="120" y="835" width="120" height="60" as="geometry" />
        </mxCell>
        <mxCell id="k9V-9qbHWD5xuGSFb-m8-10" value="" style="rounded=1;whiteSpace=wrap;html=1;" vertex="1" parent="WIyWlLk6GJQsqaUBKTNV-1">
          <mxGeometry x="194" y="920" width="120" height="60" as="geometry" />
        </mxCell>
        <mxCell id="k9V-9qbHWD5xuGSFb-m8-9" value="" style="rounded=1;whiteSpace=wrap;html=1;" vertex="1" parent="WIyWlLk6GJQsqaUBKTNV-1">
          <mxGeometry x="330" y="835" width="120" height="60" as="geometry" />
        </mxCell>
        <mxCell id="GHZf19EeRt72uuzPQFpT-29" value="认证策略&lt;br&gt;&lt;br&gt;&lt;br&gt;&lt;br&gt;&lt;br&gt;&lt;br&gt;&lt;br&gt;&lt;br&gt;&lt;br&gt;" style="rounded=1;whiteSpace=wrap;html=1;" parent="WIyWlLk6GJQsqaUBKTNV-1" vertex="1">
          <mxGeometry x="164" y="520" width="140" height="140" as="geometry" />
        </mxCell>
        <mxCell id="GHZf19EeRt72uuzPQFpT-12" style="edgeStyle=none;rounded=0;orthogonalLoop=1;jettySize=auto;html=1;exitX=1;exitY=0.5;exitDx=0;exitDy=0;entryX=0;entryY=0.311;entryDx=0;entryDy=0;entryPerimeter=0;" parent="WIyWlLk6GJQsqaUBKTNV-1" source="GHZf19EeRt72uuzPQFpT-0" target="GHZf19EeRt72uuzPQFpT-5" edge="1">
          <mxGeometry relative="1" as="geometry" />
        </mxCell>
        <mxCell id="GHZf19EeRt72uuzPQFpT-0" value="免认证" style="rounded=1;whiteSpace=wrap;html=1;fontSize=12;glass=0;strokeWidth=1;shadow=0;" parent="WIyWlLk6GJQsqaUBKTNV-1" vertex="1">
          <mxGeometry x="176" y="545" width="120" height="40" as="geometry" />
        </mxCell>
        <mxCell id="GHZf19EeRt72uuzPQFpT-13" style="edgeStyle=none;rounded=0;orthogonalLoop=1;jettySize=auto;html=1;exitX=1;exitY=0.5;exitDx=0;exitDy=0;entryX=0;entryY=0.5;entryDx=0;entryDy=0;" parent="WIyWlLk6GJQsqaUBKTNV-1" source="GHZf19EeRt72uuzPQFpT-1" target="GHZf19EeRt72uuzPQFpT-2" edge="1">
          <mxGeometry relative="1" as="geometry" />
        </mxCell>
        <mxCell id="GHZf19EeRt72uuzPQFpT-1" value="认证" style="rounded=1;whiteSpace=wrap;html=1;fontSize=12;glass=0;strokeWidth=1;shadow=0;" parent="WIyWlLk6GJQsqaUBKTNV-1" vertex="1">
          <mxGeometry x="176" y="611.16" width="120" height="40" as="geometry" />
        </mxCell>
        <mxCell id="GHZf19EeRt72uuzPQFpT-15" style="edgeStyle=none;rounded=0;orthogonalLoop=1;jettySize=auto;html=1;exitX=1;exitY=0.5;exitDx=0;exitDy=0;entryX=0;entryY=0.5;entryDx=0;entryDy=0;" parent="WIyWlLk6GJQsqaUBKTNV-1" source="GHZf19EeRt72uuzPQFpT-2" target="GHZf19EeRt72uuzPQFpT-7" edge="1">
          <mxGeometry relative="1" as="geometry" />
        </mxCell>
        <mxCell id="GHZf19EeRt72uuzPQFpT-2" value="LDAP服务器认证" style="rounded=1;whiteSpace=wrap;html=1;fontSize=12;glass=0;strokeWidth=1;shadow=0;" parent="WIyWlLk6GJQsqaUBKTNV-1" vertex="1">
          <mxGeometry x="330" y="610" width="120" height="40" as="geometry" />
        </mxCell>
        <mxCell id="GHZf19EeRt72uuzPQFpT-5" value="安全策略&lt;br&gt;&lt;br&gt;&lt;br&gt;lan_whitelist&lt;br&gt;ip_internet_whitelist&lt;br&gt;trust_to_untrust_Office&lt;br&gt;url_internet_whitelist&lt;br&gt;……&lt;br&gt;default" style="rounded=1;whiteSpace=wrap;html=1;fontSize=12;glass=0;strokeWidth=1;shadow=0;" parent="WIyWlLk6GJQsqaUBKTNV-1" vertex="1">
          <mxGeometry x="680" y="510" width="170" height="180" as="geometry" />
        </mxCell>
        <mxCell id="GHZf19EeRt72uuzPQFpT-8" style="edgeStyle=none;rounded=0;orthogonalLoop=1;jettySize=auto;html=1;exitX=0.5;exitY=1;exitDx=0;exitDy=0;entryX=0.002;entryY=0.465;entryDx=0;entryDy=0;entryPerimeter=0;" parent="WIyWlLk6GJQsqaUBKTNV-1" source="GHZf19EeRt72uuzPQFpT-7" target="GHZf19EeRt72uuzPQFpT-1" edge="1">
          <mxGeometry relative="1" as="geometry">
            <mxPoint x="160" y="630" as="targetPoint" />
            <Array as="points">
              <mxPoint x="560" y="720" />
              <mxPoint x="130" y="720" />
              <mxPoint x="130" y="630" />
            </Array>
          </mxGeometry>
        </mxCell>
        <mxCell id="GHZf19EeRt72uuzPQFpT-16" style="edgeStyle=none;rounded=0;orthogonalLoop=1;jettySize=auto;html=1;exitX=1;exitY=0.5;exitDx=0;exitDy=0;entryX=0;entryY=0.668;entryDx=0;entryDy=0;entryPerimeter=0;" parent="WIyWlLk6GJQsqaUBKTNV-1" source="GHZf19EeRt72uuzPQFpT-7" target="GHZf19EeRt72uuzPQFpT-5" edge="1">
          <mxGeometry relative="1" as="geometry" />
        </mxCell>
        <mxCell id="GHZf19EeRt72uuzPQFpT-7" value="通过认证？" style="rhombus;whiteSpace=wrap;html=1;shadow=0;fontFamily=Helvetica;fontSize=12;align=center;strokeWidth=1;spacing=6;spacingTop=-4;" parent="WIyWlLk6GJQsqaUBKTNV-1" vertex="1">
          <mxGeometry x="510" y="590" width="100" height="80" as="geometry" />
        </mxCell>
        <mxCell id="GHZf19EeRt72uuzPQFpT-20" value="上网用户" style="verticalLabelPosition=bottom;aspect=fixed;html=1;verticalAlign=top;strokeColor=none;shape=mxgraph.citrix.users;rounded=0;shadow=0;comic=0;fontFamily=Verdana;" parent="WIyWlLk6GJQsqaUBKTNV-1" vertex="1">
          <mxGeometry x="30" y="560" width="60" height="51.16" as="geometry" />
        </mxCell>
        <mxCell id="GHZf19EeRt72uuzPQFpT-21" value="" style="endArrow=classic;dashed=1;html=1;exitX=0.98;exitY=0.622;exitDx=0;exitDy=0;exitPerimeter=0;endFill=1;" parent="WIyWlLk6GJQsqaUBKTNV-1" source="GHZf19EeRt72uuzPQFpT-20" edge="1">
          <mxGeometry width="50" height="50" relative="1" as="geometry">
            <mxPoint x="250" y="670" as="sourcePoint" />
            <mxPoint x="160" y="570" as="targetPoint" />
          </mxGeometry>
        </mxCell>
        <mxCell id="GHZf19EeRt72uuzPQFpT-22" value="" style="endArrow=classic;dashed=1;html=1;entryX=-0.016;entryY=0.7;entryDx=0;entryDy=0;exitX=0.933;exitY=0.653;exitDx=0;exitDy=0;exitPerimeter=0;endFill=1;entryPerimeter=0;" parent="WIyWlLk6GJQsqaUBKTNV-1" source="GHZf19EeRt72uuzPQFpT-20" target="GHZf19EeRt72uuzPQFpT-29" edge="1">
          <mxGeometry width="50" height="50" relative="1" as="geometry">
            <mxPoint x="70" y="650" as="sourcePoint" />
            <mxPoint x="120" y="600" as="targetPoint" />
          </mxGeometry>
        </mxCell>
        <mxCell id="GHZf19EeRt72uuzPQFpT-23" value="否" style="text;html=1;align=center;verticalAlign=middle;resizable=0;points=[];autosize=1;" parent="WIyWlLk6GJQsqaUBKTNV-1" vertex="1">
          <mxGeometry x="530" y="687" width="30" height="20" as="geometry" />
        </mxCell>
        <mxCell id="GHZf19EeRt72uuzPQFpT-24" value="是" style="text;html=1;align=center;verticalAlign=middle;resizable=0;points=[];autosize=1;" parent="WIyWlLk6GJQsqaUBKTNV-1" vertex="1">
          <mxGeometry x="630" y="611.16" width="30" height="20" as="geometry" />
        </mxCell>
        <mxCell id="GHZf19EeRt72uuzPQFpT-25" value="INTERNET" style="ellipse;shape=cloud;whiteSpace=wrap;html=1;" parent="WIyWlLk6GJQsqaUBKTNV-1" vertex="1">
          <mxGeometry x="950" y="560" width="120" height="80" as="geometry" />
        </mxCell>
        <mxCell id="GHZf19EeRt72uuzPQFpT-28" value="" style="shape=flexArrow;endArrow=classic;html=1;" parent="WIyWlLk6GJQsqaUBKTNV-1" edge="1">
          <mxGeometry width="50" height="50" relative="1" as="geometry">
            <mxPoint x="877" y="609.6" as="sourcePoint" />
            <mxPoint x="937" y="609.6" as="targetPoint" />
          </mxGeometry>
        </mxCell>
        <mxCell id="GHZf19EeRt72uuzPQFpT-32" value="数据流" style="text;html=1;align=center;verticalAlign=middle;resizable=0;points=[];autosize=1;" parent="WIyWlLk6GJQsqaUBKTNV-1" vertex="1">
          <mxGeometry x="99" y="582" width="50" height="20" as="geometry" />
        </mxCell>
        <mxCell id="k9V-9qbHWD5xuGSFb-m8-0" value="" style="rounded=1;whiteSpace=wrap;html=1;" vertex="1" parent="WIyWlLk6GJQsqaUBKTNV-1">
          <mxGeometry x="705" y="835" width="120" height="60" as="geometry" />
        </mxCell>
        <mxCell id="k9V-9qbHWD5xuGSFb-m8-1" value="配置域名组&lt;br&gt;配置免认证策略" style="text;html=1;strokeColor=none;fillColor=none;align=center;verticalAlign=middle;whiteSpace=wrap;rounded=0;" vertex="1" parent="WIyWlLk6GJQsqaUBKTNV-1">
          <mxGeometry x="120" y="850" width="110" height="30" as="geometry" />
        </mxCell>
        <mxCell id="k9V-9qbHWD5xuGSFb-m8-3" value="配置LDAP服务器" style="text;html=1;strokeColor=none;fillColor=none;align=center;verticalAlign=middle;whiteSpace=wrap;rounded=0;" vertex="1" parent="WIyWlLk6GJQsqaUBKTNV-1">
          <mxGeometry x="340" y="855" width="110" height="20" as="geometry" />
        </mxCell>
        <mxCell id="k9V-9qbHWD5xuGSFb-m8-8" style="edgeStyle=orthogonalEdgeStyle;rounded=0;orthogonalLoop=1;jettySize=auto;html=1;exitX=0.75;exitY=0;exitDx=0;exitDy=0;" edge="1" parent="WIyWlLk6GJQsqaUBKTNV-1" source="k9V-9qbHWD5xuGSFb-m8-4" target="GHZf19EeRt72uuzPQFpT-1">
          <mxGeometry relative="1" as="geometry">
            <Array as="points">
              <mxPoint x="259" y="720" />
              <mxPoint x="259" y="720" />
            </Array>
          </mxGeometry>
        </mxCell>
        <mxCell id="k9V-9qbHWD5xuGSFb-m8-4" value="配置认证策略&lt;br&gt;配置认证选项&lt;br&gt;导入用户" style="text;html=1;strokeColor=none;fillColor=none;align=center;verticalAlign=middle;whiteSpace=wrap;rounded=0;" vertex="1" parent="WIyWlLk6GJQsqaUBKTNV-1">
          <mxGeometry x="199" y="920" width="110" height="60" as="geometry" />
        </mxCell>
        <mxCell id="k9V-9qbHWD5xuGSFb-m8-5" value="配置安全策略" style="text;html=1;strokeColor=none;fillColor=none;align=center;verticalAlign=middle;whiteSpace=wrap;rounded=0;" vertex="1" parent="WIyWlLk6GJQsqaUBKTNV-1">
          <mxGeometry x="705" y="855" width="110" height="20" as="geometry" />
        </mxCell>
        <mxCell id="k9V-9qbHWD5xuGSFb-m8-12" value="" style="endArrow=classic;html=1;exitX=0.5;exitY=0;exitDx=0;exitDy=0;entryX=0.5;entryY=1;entryDx=0;entryDy=0;" edge="1" parent="WIyWlLk6GJQsqaUBKTNV-1" source="k9V-9qbHWD5xuGSFb-m8-0" target="GHZf19EeRt72uuzPQFpT-5">
          <mxGeometry width="50" height="50" relative="1" as="geometry">
            <mxPoint x="620" y="860" as="sourcePoint" />
            <mxPoint x="670" y="810" as="targetPoint" />
          </mxGeometry>
        </mxCell>
        <mxCell id="k9V-9qbHWD5xuGSFb-m8-15" value="" style="endArrow=classic;html=1;entryX=0.602;entryY=1.052;entryDx=0;entryDy=0;entryPerimeter=0;exitX=0.597;exitY=0.024;exitDx=0;exitDy=0;exitPerimeter=0;" edge="1" parent="WIyWlLk6GJQsqaUBKTNV-1" source="k9V-9qbHWD5xuGSFb-m8-9" target="GHZf19EeRt72uuzPQFpT-2">
          <mxGeometry width="50" height="50" relative="1" as="geometry">
            <mxPoint x="402" y="830" as="sourcePoint" />
            <mxPoint x="670" y="810" as="targetPoint" />
          </mxGeometry>
        </mxCell>
        <mxCell id="k9V-9qbHWD5xuGSFb-m8-17" value="" style="endArrow=classic;html=1;entryX=0.25;entryY=1;entryDx=0;entryDy=0;" edge="1" parent="WIyWlLk6GJQsqaUBKTNV-1">
          <mxGeometry width="50" height="50" relative="1" as="geometry">
            <mxPoint x="206" y="834" as="sourcePoint" />
            <mxPoint x="206" y="589" as="targetPoint" />
          </mxGeometry>
        </mxCell>
      </root>
    </mxGraphModel>
  </diagram>
</mxfile>
